<svg id="Layer_1" data-name="Layer 1" xmlns="http://www.w3.org/2000/svg" viewBox="0 0 60.38 92">
  <defs>
    <style>
      .cls-1 {
        fill: #202b5f;
      }

      .cls-2 {
        fill: #1779bf;
      }

      .cls-3 {
        fill: #e62a43;
      }

      .cls-4 {
        fill: #069848;
      }

      .cls-5 {
        fill: #f6b619;
      }

      .cls-6 {
        fill: #231916;
      }
    </style>
  </defs>
  <title>Tokyo Olympics 2020 logo</title>
  <rect class="cls-1" x="44.55" y="20.63" width="5.27" height="5.26" transform="translate(3.43 52.47) rotate(-59.97)"/>
  <polygon class="cls-1" points="47.18 10.87 47.18 10.87 47.18 10.87 47.18 10.87 47.18 16.13 52.44 16.13 52.44 10.87 47.18 10.87"/>
  <rect class="cls-1" x="40" y="50.13" width="7.15" height="1.9" transform="translate(-19.7 28.63) rotate(-30)"/>
  <rect class="cls-1" x="56.06" y="24.24" width="1.9" height="7.16"/>
  <rect class="cls-1" x="49.81" y="40.32" width="7.16" height="1.9" transform="translate(-9.04 66.88) rotate(-60.01)"/>
  <polygon class="cls-1" points="36.39 43.9 36.39 43.9 36.39 43.9 36.39 51.15 36.39 51.15 38.38 51.15 38.38 43.9 36.39 43.9"/>
  <rect class="cls-1" x="44" y="43.03" width="6.47" height="3.71" transform="translate(-17.9 46.55) rotate(-45.01)"/>
  <polygon class="cls-1" points="43.62 31.45 48.2 26.88 50.83 29.5 46.25 34.08 43.62 31.45"/>
  <rect class="cls-1" x="37.93" y="39.32" width="6.47" height="3.71" transform="translate(-9.26 70.28) rotate(-75.01)"/>
  <rect class="cls-1" x="50.24" y="32.25" width="6.47" height="3.71" transform="translate(6.68 76.92) rotate(-74.98)"/>
  <rect class="cls-1" x="50.23" y="17.86" width="6.47" height="3.71" transform="translate(20.56 66.23) rotate(-74.97)"/>
  <polygon class="cls-1" points="40.97 14.4 40.02 18.03 46.23 19.66 47.18 16.13 40.97 14.4"/>
  <rect class="cls-1" x="15.09" y="12.77" width="5.26" height="5.26"/>
  <polygon class="cls-1" points="6.9 21.65 11.47 18.98 8.88 14.4 4.31 17.08 6.9 21.65 6.9 21.65"/>
  <rect class="cls-1" x="42.59" y="1.02" width="1.9" height="7.16" transform="translate(17.82 40.03) rotate(-60.06)"/>
  <rect class="cls-1" x="13.18" y="3.62" width="7.16" height="1.9" transform="translate(-0.04 8.99) rotate(-30)"/>
  <rect class="cls-1" x="26.56" width="7.16" height="1.9"/>
  <polygon class="cls-1" points="46.23 9.14 40.02 12.77 40.97 14.4 40.97 14.4 40.97 14.4 47.18 10.87 47.18 10.87 46.23 9.14"/>
  <polygon class="cls-1" points="32.84 5.52 33.8 1.94 40.05 3.62 39.09 7.2 32.84 5.52"/>
  <rect class="cls-1" x="22.07" y="8.56" width="3.71" height="6.47" transform="translate(6.35 31.86) rotate(-75.01)"/>
  <rect class="cls-1" x="33.2" y="9.91" width="6.47" height="3.71" transform="translate(-1.8 9.83) rotate(-15)"/>
  <rect class="cls-1" x="20.88" y="2.76" width="6.47" height="3.71" transform="translate(-0.37 6.4) rotate(-15.01)"/>
  <rect class="cls-1" x="8.28" y="9.91" width="6.47" height="3.71" transform="translate(-2.65 3.38) rotate(-15)"/>
  <polygon class="cls-1" points="13.2 25.19 16.73 24.24 15.09 18.03 11.47 18.98 13.11 25.19 13.2 25.19"/>
  <rect class="cls-1" x="23.03" y="42.24" width="5.26" height="5.26" transform="translate(-19 18.85) rotate(-30.01)"/>
  <polygon class="cls-1" points="36.39 51.15 31.83 48.47 29.24 53.05 33.81 55.72 36.39 51.15 36.39 51.15"/>
  <rect class="cls-1" x="2.33" y="24.24" width="1.9" height="7.16"/>
  <rect class="cls-1" x="15.78" y="47.55" width="1.89" height="7.16" transform="translate(-35.91 40.03) rotate(-59.97)"/>
  <rect class="cls-1" x="5.95" y="37.71" width="1.9" height="7.16" transform="translate(-19.73 8.99) rotate(-30.03)"/>
  <polygon class="cls-1" points="13.2 25.19 13.11 25.19 13.11 25.19 6.9 21.65 6.9 21.65 5.95 23.29 12.16 26.91 13.2 25.19"/>
  <rect class="cls-1" x="5.1" y="30.87" width="3.71" height="6.47" transform="translate(-8.58 2.96) rotate(-14.99)"/>
  <rect class="cls-1" x="17.5" y="38.05" width="3.71" height="6.47" transform="translate(-10.03 6.42) rotate(-15)"/>
  <rect class="cls-1" x="11.31" y="27.25" width="3.71" height="6.47" transform="translate(-17.7 18.23) rotate(-44.99)"/>
  <rect class="cls-1" x="11.32" y="41.66" width="3.71" height="6.47" transform="translate(-27.89 22.46) rotate(-45)"/>
  <rect class="cls-1" x="23.72" y="48.86" width="3.71" height="6.47" transform="translate(-29.34 33.34) rotate(-45)"/>
  <polygon class="cls-1" points="36.39 43.9 33.81 41.31 29.24 45.89 31.83 48.47 36.39 43.9"/>
  <polygon class="cls-1" points="43.59 38.62 46.22 34.06 50.78 36.69 48.14 41.25 43.59 38.62"/>
  <rect class="cls-1" x="37.36" y="47.57" width="7.16" height="1.9" transform="translate(-21.55 59.73) rotate(-60.01)"/>
  <rect class="cls-1" x="49.88" y="25.97" width="7.16" height="1.89" transform="translate(3.42 59.75) rotate(-59.99)"/>
  <rect class="cls-1" x="27.51" y="5.52" width="5.26" height="5.26"/>
  <rect class="cls-1" x="39.07" y="7.24" width="7.16" height="1.9"/>
  <rect class="cls-1" x="14.14" y="7.24" width="7.16" height="1.9"/>
  <rect class="cls-1" x="10.51" y="35.02" width="5.26" height="5.26" transform="translate(-17.06 11.61) rotate(-29.99)"/>
  <rect class="cls-1" x="5.95" y="23.31" width="1.89" height="7.16" transform="translate(-12.51 7.04) rotate(-29.99)"/>
  <rect class="cls-1" x="18.43" y="44.85" width="1.9" height="7.16" transform="translate(-21.62 16.19) rotate(-30.01)"/>
  <path id="Blue_Ring" data-name="Blue Ring" class="cls-2" d="M22.68,79.61A6.38,6.38,0,1,0,16.3,86h.52V84.87H16.3a5.35,5.35,0,1,1,5.35-5.35,5.28,5.28,0,0,1-3.71,5.09c0,.26-.08.52-.08.78v.34A6.2,6.2,0,0,0,22.68,79.61Z"/>
  <path id="Red_Ring" data-name="Red Ring" class="cls-3" d="M50.46,79.61a6.45,6.45,0,0,1-6.3,6.56,6.37,6.37,0,0,1-6.47-6,2.69,2.69,0,0,1,1.12.26,5.37,5.37,0,1,0,4.49-6.12,5.15,5.15,0,0,0-4.49,4.92,3.72,3.72,0,0,0-1-.18,6.4,6.4,0,0,1,7-5.78A6.31,6.31,0,0,1,50.46,79.61Z"/>
  <path id="Green_Ring" data-name="Green Ring" class="cls-4" d="M37.09,80.13a5.24,5.24,0,0,1,5.26,4.57c.35.08.69.17,1.12.25a6.46,6.46,0,0,0-6.38-5.86h-.61v1.12A1.85,1.85,0,0,1,37.09,80.13Zm5.34,5.69a5.31,5.31,0,1,1-10.6-.6,5.06,5.06,0,0,1,3.7-4.75c0-.26.09-.52.09-.77v-.35a6.42,6.42,0,1,0,8,6.73c-.52-.09-.86-.18-1.21-.26Z"/>
  <path id="Yellow_Ring" data-name="Yellow Ring" class="cls-5" d="M22.68,80.21V79.09h.52A6.39,6.39,0,0,1,29.58,85a2.71,2.71,0,0,1-1.12-.25,5.43,5.43,0,0,0-5.26-4.57A1.2,1.2,0,0,0,22.68,80.21ZM29.58,86a6.4,6.4,0,1,1-12.76-1,6.54,6.54,0,0,1,4.74-5.68v.34a2.59,2.59,0,0,1-.08.78,5.32,5.32,0,1,0,3.36,10.09,5.27,5.27,0,0,0,3.62-4.75,3,3,0,0,0,1.12.26Z"/>
  <path id="Black_Ring" data-name="Black Ring" class="cls-6" d="M30.19,73.22a6.38,6.38,0,0,0-6.38,5.87,4.18,4.18,0,0,1,1,.17,5.36,5.36,0,1,1,7,5.44c0,.25-.09.52-.09.78v.34a6.41,6.41,0,0,0,4.65-7.76,6.18,6.18,0,0,0-6.2-4.84Zm0,11.73a5.21,5.21,0,0,1-5.26-4.48l-1.12-.26a6.45,6.45,0,0,0,6.38,5.87h.51V85Z"/>
  <path class="cls-1" d="M3.28,68.83H1.9V61.76H0V60.55H5.17v1.21H3.28Z"/>
  <path class="cls-1" d="M20.1,68.83H18.46l-2-3.62-.77,1v2.59H14.32V60.46H15.7v3.71h0l2.5-3.8h1.64L17.34,64Z"/>
  <path class="cls-1" d="M24.58,68.83H23.29V65.21l-2.16-4.75h1.3l1.46,3.28h0l1.47-3.28h1.46l-2.15,4.75v3.62Z"/>
  <path class="cls-1" d="M41.14,68.83H36.48V67.62h0l3.11-4a1.39,1.39,0,0,0,.26-.77,1.12,1.12,0,0,0-1-1.12h0A1.43,1.43,0,0,0,38,62a1.34,1.34,0,0,0-.34,1v.09h-1.3V63a2.8,2.8,0,0,1,.7-1.81,2.35,2.35,0,0,1,1.64-.69,2.56,2.56,0,0,1,1.72.69,2.52,2.52,0,0,1,.69,1.73,2.44,2.44,0,0,1-.6,1.64l-2.33,3h2.93v1.3Z"/>
  <path class="cls-1" d="M54.16,68.83H49.51V67.62h0l3.1-4a1.32,1.32,0,0,0,.26-.77,1.11,1.11,0,0,0-1-1.12h0a1.38,1.38,0,0,0-.78.25,1.31,1.31,0,0,0-.35,1v.09H49.42V63a2.79,2.79,0,0,1,.69-1.81,2.37,2.37,0,0,1,1.64-.69,2.61,2.61,0,0,1,1.73.69,2.57,2.57,0,0,1,.69,1.73,2.12,2.12,0,0,1-.6,1.55l-2.42,3.1h2.93Z"/>
  <path class="cls-1" d="M30.44,68.91a2.42,2.42,0,0,1-2.58-2.32V63a2.6,2.6,0,0,1,2.58-2.59A2.65,2.65,0,0,1,33,63v3.45a2.43,2.43,0,0,1-2.41,2.5h-.18Zm0-7.15a1.45,1.45,0,0,0-1.37,1.29v3.11a1.34,1.34,0,0,0,1.2,1.46,1.4,1.4,0,0,0,1.47-1.21V63.22a1.36,1.36,0,0,0-1.3-1.46Z"/>
  <path class="cls-1" d="M9.4,68.91a2.43,2.43,0,0,1-2.59-2.32V63a2.43,2.43,0,0,1,2.42-2.5H9.4A2.44,2.44,0,0,1,12,62.79v3.62a2.43,2.43,0,0,1-2.42,2.5H9.4Zm0-7.15A1.47,1.47,0,0,0,8,63.05v3.11a1.34,1.34,0,1,0,2.67.25V63.22a1.33,1.33,0,0,0-1.2-1.38H9.4Z"/>
  <path class="cls-1" d="M45.37,68.91a2.23,2.23,0,0,1-2.25-2.24V62.88a2.33,2.33,0,1,1,4.66,0h0V66.5a2.28,2.28,0,0,1-2.07,2.41Zm0-7.15c-.86,0-1,.69-1,1.2v3.45c0,.86.35,1.21,1,1.21s1-.43,1-1.21V63C46.4,62.45,46.23,61.76,45.37,61.76Z"/>
  <path class="cls-1" d="M58.05,68.91a2.29,2.29,0,0,1-2.34-2.15V62.88a2.34,2.34,0,1,1,4.67,0h0V66.5a2.29,2.29,0,0,1-2.08,2.41Zm0-7.15c-.87,0-1,.69-1,1.2v3.45c0,.86.34,1.21,1,1.21s1-.43,1-1.21V63A1,1,0,0,0,58.05,61.76Z"/>
  <polygon class="cls-6" points="50.46 48.3 51.06 48.3 51.06 49.85 51.23 49.85 51.23 48.3 51.92 48.3 51.92 48.13 50.46 48.13 50.46 48.3"/>
  <polygon class="cls-6" points="53.39 48.13 52.87 49.34 52.87 49.34 52.35 48.13 52.09 48.13 52.09 49.85 52.27 49.85 52.27 48.47 52.27 48.47 52.79 49.59 52.96 49.59 53.39 48.47 53.47 48.47 53.47 49.85 53.65 49.85 53.65 48.13 53.39 48.13"/>
</svg>
